<svg width="168" height="40" viewBox="0 0 168 40" fill="none" xmlns="http://www.w3.org/2000/svg">
<g id="toolsLogoActive.2940d42d1244a6d81e9a03dddbb3c753 1" clip-path="url(#clip0_752_1551)">
<path id="Vector" d="M58.9062 24.4026C58.9062 24.3014 58.94 24.2172 59.0074 24.1498C59.0862 24.0712 59.1706 24.0319 59.2605 24.0319H67.7618C68.0429 24.0319 68.2847 23.9365 68.4871 23.7455C68.6895 23.5433 68.7907 23.3018 68.7907 23.0211V18.8596C68.7907 18.5788 68.6895 18.3372 68.4871 18.1351C68.2847 17.933 68.0429 17.8318 67.7618 17.8318H59.2605C59.1706 17.8318 59.0862 17.7981 59.0074 17.7307C58.94 17.6634 58.9062 17.5791 58.9062 17.478V16.2481C58.9062 16.147 58.94 16.0628 59.0074 15.9954C59.0862 15.9168 59.1706 15.8774 59.2605 15.8774H68.1666C68.875 15.8774 69.4822 16.1302 69.9883 16.6356C70.4943 17.1411 70.7473 17.7476 70.7473 18.4552V23.4086C70.7473 24.1162 70.4943 24.7227 69.9883 25.2281C69.4822 25.7335 68.875 25.9863 68.1666 25.9863H59.2605C59.1706 25.9863 59.0862 25.9526 59.0074 25.8851C58.94 25.8066 58.9062 25.7223 58.9062 25.6325V24.4026Z" fill="#5570D3"/>
<path id="Vector_2" d="M73.667 18.3878C73.4646 18.0396 73.2003 17.8487 72.8742 17.815H72.2838C72.1939 17.815 72.1096 17.7812 72.0309 17.7139C71.9634 17.6465 71.9297 17.5622 71.9297 17.4611V16.2313C71.9297 16.1414 71.9577 16.0628 72.014 15.9954C72.0815 15.928 72.1602 15.8943 72.2502 15.8943L73.3466 15.8774C74.0999 15.8887 74.6622 16.2144 75.0333 16.8546L75.9273 18.3878L76.4333 19.2639L76.5682 19.5167C76.7482 19.8311 77.0237 19.9884 77.3948 19.9884H78.9297C79.3008 19.9884 79.5763 19.8311 79.7562 19.5167L79.8911 19.2639L80.3972 18.3878L81.2912 16.8546C81.6623 16.2144 82.2189 15.8887 82.961 15.8774L84.0574 15.8943C84.1475 15.8943 84.2261 15.928 84.2936 15.9954C84.3611 16.0628 84.3948 16.1414 84.3948 16.2313V17.4611C84.3948 17.5622 84.3554 17.6465 84.2767 17.7139C84.2093 17.7812 84.1249 17.815 84.0237 17.815H83.4503C83.1242 17.8487 82.8598 18.0396 82.6575 18.3878L82.1514 19.2639L82.1346 19.2808L81.6623 20.1063L81.4936 20.3759L81.1731 20.9488V20.9655C80.7908 21.6058 80.2285 21.9259 79.4864 21.9259H79.1321V25.6325C79.1321 25.7223 79.0984 25.8066 79.0309 25.8851C78.9634 25.9526 78.8791 25.9863 78.7779 25.9863H77.5465C77.4454 25.9863 77.3611 25.9526 77.2936 25.8851C77.2261 25.8066 77.1924 25.7223 77.1924 25.6325V21.9259H76.8381C76.0847 21.9259 75.5224 21.6058 75.1514 20.9655V20.9488L74.814 20.3759L74.6622 20.1063L74.1731 19.2808V19.2639L73.667 18.3878Z" fill="#5570D3"/>
<path id="Vector_3" d="M88.1237 20.797H94.3985C94.6796 20.797 94.9214 20.7016 95.1238 20.5107C95.3262 20.3085 95.4274 20.067 95.4274 19.7862V18.8596C95.4274 18.5788 95.3262 18.3372 95.1238 18.1351C94.9214 17.933 94.6796 17.8318 94.3985 17.8318H85.8972C85.8073 17.8318 85.7229 17.7981 85.6442 17.7307C85.5767 17.6634 85.543 17.5791 85.543 17.478V16.2481C85.543 16.147 85.5767 16.0628 85.6442 15.9954C85.7229 15.9168 85.8073 15.8774 85.8972 15.8774H94.8033C95.5117 15.8774 96.119 16.1302 96.625 16.6356C97.1311 17.1411 97.384 17.7476 97.384 18.4552V20.1737C97.384 20.6342 97.2659 21.0666 97.0299 21.471C96.7937 21.8642 96.4788 22.1786 96.0853 22.4145C95.6916 22.6391 95.2644 22.7515 94.8033 22.7515H88.5117C88.2306 22.7515 87.9888 22.8526 87.7864 23.0547C87.5952 23.2456 87.4996 23.4815 87.4996 23.7623V25.6325C87.4996 25.7223 87.4602 25.8066 87.3816 25.8851C87.3141 25.9526 87.2297 25.9863 87.1285 25.9863H85.8972C85.8073 25.9863 85.7229 25.9526 85.6442 25.8851C85.5767 25.8066 85.543 25.7223 85.543 25.6325V23.3748C85.543 22.6672 85.7959 22.0607 86.302 21.5553C86.808 21.0498 87.4153 20.797 88.1237 20.797Z" fill="#5570D3"/>
<path id="Vector_4" d="M110.009 17.8318H105.421C105.331 17.8318 105.247 17.7981 105.168 17.7307C105.101 17.6634 105.066 17.5791 105.066 17.478V16.2481C105.066 16.147 105.101 16.0628 105.168 15.9954C105.247 15.9168 105.331 15.8774 105.421 15.8774H116.536C116.638 15.8774 116.722 15.9168 116.79 15.9954C116.868 16.0628 116.907 16.147 116.907 16.2481V17.478C116.907 17.5791 116.868 17.6634 116.79 17.7307C116.722 17.7981 116.638 17.8318 116.536 17.8318H111.966V25.6325C111.966 25.7223 111.926 25.8066 111.848 25.8851C111.781 25.9526 111.696 25.9863 111.595 25.9863H110.363C110.273 25.9863 110.189 25.9526 110.11 25.8851C110.043 25.8066 110.009 25.7223 110.009 25.6325V17.8318Z" fill="#5570D3"/>
<path id="Vector_5" d="M118.07 18.4552C118.07 17.7476 118.323 17.1411 118.829 16.6356C119.335 16.1302 119.943 15.8774 120.651 15.8774H127.955C128.663 15.8774 129.271 16.1302 129.777 16.6356C130.283 17.1411 130.536 17.7476 130.536 18.4552V23.4086C130.536 24.1162 130.283 24.7227 129.777 25.2281C129.271 25.7335 128.663 25.9863 127.955 25.9863H120.651C119.943 25.9863 119.335 25.7335 118.829 25.2281C118.323 24.7227 118.07 24.1162 118.07 23.4086V18.4552ZM120.027 23.0211C120.027 23.3018 120.122 23.5433 120.314 23.7455C120.516 23.9365 120.758 24.0319 121.039 24.0319H127.567C127.747 24.0319 127.916 23.987 128.073 23.8971C128.23 23.8073 128.354 23.6837 128.444 23.5265C128.534 23.3692 128.579 23.2008 128.579 23.0211V18.8596C128.579 18.5788 128.478 18.3372 128.275 18.1351C128.084 17.933 127.848 17.8318 127.567 17.8318H121.039C120.758 17.8318 120.516 17.933 120.314 18.1351C120.122 18.3372 120.027 18.5788 120.027 18.8596V23.0211Z" fill="#5570D3"/>
<path id="Vector_6" d="M131.703 18.4552C131.703 17.7476 131.956 17.1411 132.462 16.6356C132.968 16.1302 133.575 15.8774 134.284 15.8774H141.587C142.296 15.8774 142.902 16.1302 143.408 16.6356C143.915 17.1411 144.168 17.7476 144.168 18.4552V23.4086C144.168 24.1162 143.915 24.7227 143.408 25.2281C142.902 25.7335 142.296 25.9863 141.587 25.9863H134.284C133.575 25.9863 132.968 25.7335 132.462 25.2281C131.956 24.7227 131.703 24.1162 131.703 23.4086V18.4552ZM133.66 23.0211C133.66 23.3018 133.755 23.5433 133.946 23.7455C134.149 23.9365 134.39 24.0319 134.671 24.0319H141.199C141.379 24.0319 141.548 23.987 141.705 23.8971C141.862 23.8073 141.986 23.6837 142.076 23.5265C142.166 23.3692 142.211 23.2008 142.211 23.0211V18.8596C142.211 18.5788 142.11 18.3372 141.907 18.1351C141.717 17.933 141.48 17.8318 141.199 17.8318H134.671C134.39 17.8318 134.149 17.933 133.946 18.1351C133.755 18.3372 133.66 18.5788 133.66 18.8596V23.0211Z" fill="#5570D3"/>
<path id="Vector_7" d="M145.336 23.4086V16.2481C145.336 16.147 145.37 16.0628 145.438 15.9954C145.516 15.9168 145.601 15.8774 145.691 15.8774H146.921C147.023 15.8774 147.107 15.9168 147.174 15.9954C147.253 16.0628 147.292 16.147 147.292 16.2481V23.0211C147.292 23.3018 147.388 23.5433 147.58 23.7455C147.782 23.9365 148.024 24.0319 148.305 24.0319H154.9C154.968 24.0319 155.029 24.0488 155.086 24.0824C155.141 24.1162 155.182 24.1611 155.204 24.2172C155.237 24.2734 155.254 24.3352 155.254 24.4026V25.6325C155.254 25.7223 155.221 25.8066 155.153 25.8851C155.086 25.9526 155.001 25.9863 154.9 25.9863H147.916C147.208 25.9863 146.601 25.7335 146.095 25.2281C145.589 24.7227 145.336 24.1162 145.336 23.4086Z" fill="#5570D3"/>
<path id="Vector_8" d="M156.731 24.4026C156.731 24.3014 156.766 24.2172 156.833 24.1498C156.9 24.0712 156.984 24.0319 157.086 24.0319H165.031C165.312 24.0319 165.548 23.9365 165.739 23.7455C165.941 23.5433 166.043 23.3018 166.043 23.0211V22.92C166.043 22.7403 165.998 22.5718 165.908 22.4145C165.818 22.2572 165.694 22.1337 165.537 22.0439C165.38 21.954 165.211 21.9091 165.031 21.9091H159.026C158.318 21.9091 157.71 21.6564 157.204 21.1509C156.698 20.6454 156.445 20.0389 156.445 19.3313V18.4552C156.445 17.7476 156.698 17.1411 157.204 16.6356C157.71 16.1302 158.318 15.8774 159.026 15.8774H167.358C167.46 15.8774 167.544 15.9168 167.611 15.9954C167.679 16.0628 167.713 16.147 167.713 16.2481V17.478C167.713 17.5791 167.679 17.6634 167.611 17.7307C167.544 17.7981 167.46 17.8318 167.358 17.8318H159.414C159.132 17.8318 158.891 17.933 158.689 18.1351C158.497 18.3372 158.402 18.5788 158.402 18.8596V18.9438C158.402 19.2246 158.497 19.4661 158.689 19.6683C158.891 19.8592 159.132 19.9547 159.414 19.9547H165.419C166.127 19.9547 166.734 20.2074 167.24 20.7129C167.746 21.2183 167.999 21.8249 167.999 22.5325V23.4086C167.999 24.1162 167.746 24.7227 167.24 25.2281C166.734 25.7335 166.127 25.9863 165.419 25.9863H157.086C156.984 25.9863 156.9 25.9526 156.833 25.8851C156.766 25.8066 156.731 25.7223 156.731 25.6325V24.4026Z" fill="#5570D3"/>
<path id="Vector_9" d="M11.0091 4.1626C13.6332 4.20862 15.4782 5.13821 16.922 6.66604C18.2284 8.06502 19.0076 9.66648 19.615 11.3232C20.44 13.5597 20.8755 15.8606 21.3453 18.1616C22.1245 21.926 23.1329 25.6444 25.0352 29.1693C25.677 30.3659 26.4562 31.4979 27.5906 32.4552C28.0375 32.8325 28.5417 33.1546 29.1377 33.3663C30.2148 33.7437 31.1774 33.6056 32.0139 32.943C33.0452 32.133 33.6869 31.1114 34.2255 30.0621C35.4288 27.7428 36.1049 25.2946 36.6434 22.828C36.8497 21.8524 37.0216 20.8767 37.1706 19.9011C37.2737 19.2292 37.9842 18.8059 38.8207 18.8979C39.5656 18.9807 40.0698 19.5698 39.9781 20.214C39.5426 23.2053 38.8665 26.1598 37.7206 29.0313C37.0331 30.7525 36.1966 32.4276 34.787 33.8633C33.9162 34.7469 32.8848 35.474 31.4868 35.7317C29.447 36.109 27.7167 35.566 26.1812 34.5167C24.6914 33.5044 23.683 32.1883 22.8464 30.7984C21.0703 27.8624 20.0848 24.7331 19.2254 21.567C18.6295 19.3673 18.3201 17.1308 17.77 14.9311C17.3232 13.1179 16.7731 11.3232 15.799 9.63887C15.2375 8.67247 14.5728 7.7705 13.4843 7.10782C11.9487 6.16903 10.1611 6.25187 8.77449 7.32871C7.59419 8.24909 6.8608 9.40877 6.23053 10.6052C5.05023 12.8694 4.37413 15.244 3.847 17.6554C3.67512 18.4562 3.54907 19.2661 3.41155 20.076C3.29696 20.7755 2.62087 21.2172 1.77288 21.1344C1.01657 21.0608 0.500898 20.4718 0.592573 19.7999C0.993651 17.0663 1.64683 14.3788 2.68962 11.7649C3.44593 9.8506 4.38559 8.00059 5.96697 6.41753C7.0556 5.34069 8.36196 4.50314 10.1153 4.25464C10.4705 4.19942 10.8257 4.18101 11.0091 4.1626Z" fill="url(#paint0_linear_752_1551)"/>
<path id="Vector_10" d="M11.0091 0.492676C13.6332 0.549352 15.4782 1.69421 16.922 3.57585C18.2284 5.29881 19.0076 7.27114 19.615 9.31148C20.44 12.066 20.8755 14.8997 21.3453 17.7336C22.1245 22.3697 23.1329 26.9491 25.0352 31.2905C25.677 32.7641 26.4562 34.1584 27.5906 35.3372C28.0375 35.802 28.5417 36.1986 29.1377 36.4593C30.2148 36.9241 31.1774 36.7541 32.0139 35.938C33.0452 34.9404 33.6869 33.6823 34.2255 32.39C35.4288 29.5336 36.1049 26.5184 36.6434 23.4805C36.8497 22.2789 37.0216 21.0775 37.1706 19.8759C37.2737 19.0484 37.9842 18.527 38.8207 18.6404C39.5656 18.7424 40.0698 19.4678 39.9781 20.2613C39.5426 23.9453 38.8665 27.5839 37.7206 31.1205C37.0331 33.2401 36.1966 35.3031 34.787 37.0714C33.9162 38.1596 32.8848 39.0551 31.4868 39.3725C29.447 39.8373 27.7167 39.1685 26.1812 37.8763C24.6914 36.6294 23.683 35.0084 22.8464 33.2968C21.0703 29.6809 20.0848 25.8269 19.2254 21.9276C18.6295 19.2184 18.3201 16.464 17.77 13.7549C17.3232 11.5219 16.7731 9.31148 15.799 7.23714C15.2375 6.04694 14.5729 4.93609 13.4843 4.11995C11.9487 2.96376 10.1611 3.06578 8.77449 4.39199C7.59419 5.52552 6.8608 6.95376 6.23053 8.42734C5.05024 11.2158 4.37413 14.1403 3.847 17.1102C3.67512 18.0963 3.54907 19.0938 3.41155 20.0913C3.29696 20.9528 2.62087 21.4969 1.77288 21.3948C1.01657 21.3042 0.500898 20.5787 0.592573 19.7512C0.993651 16.3847 1.64683 13.0747 2.68962 9.85562C3.44593 7.49784 4.38559 5.21946 5.96697 3.2698C7.05561 1.94359 8.36196 0.912079 10.1153 0.606028C10.4705 0.538016 10.8258 0.515346 11.0091 0.492676Z" fill="url(#paint1_linear_752_1551)"/>
<path id="Vector_11" d="M11.0091 7.66406C13.6332 7.69991 15.4782 8.424 16.922 9.61411C18.2284 10.7038 19.0076 11.9513 19.615 13.2418C20.44 14.9839 20.8755 16.7762 21.3453 18.5686C22.1245 21.5008 23.1329 24.3972 25.0352 27.143C25.677 28.075 26.4562 28.9569 27.5906 29.7024C28.0375 29.9964 28.5417 30.2473 29.1377 30.4122C30.2148 30.7061 31.1774 30.5986 32.0139 30.0824C33.0452 29.4515 33.6869 28.6557 34.2255 27.8384C35.4288 26.0318 36.1049 24.1248 36.6434 22.2034C36.8497 21.4434 37.0216 20.6835 37.1706 19.9235C37.2737 19.4002 37.9842 19.0704 38.8207 19.1421C39.5656 19.2066 40.0698 19.6655 39.9781 20.1673C39.5426 22.4974 38.8665 24.7986 37.7206 27.0355C37.0331 28.3762 36.1966 29.681 34.787 30.7994C33.9162 31.4876 32.8848 32.0539 31.4868 32.2547C29.447 32.5487 27.7167 32.1257 26.1812 31.3084C24.6914 30.5198 23.683 29.4945 22.8464 28.412C21.0703 26.125 20.0848 23.6874 19.2254 21.2212C18.6295 19.5077 18.3201 17.7656 17.77 16.0521C17.3232 14.6398 16.7731 13.2418 15.799 11.9298C15.2375 11.177 14.5729 10.4744 13.4843 9.95824C11.9487 9.22697 10.1611 9.29149 8.77449 10.1303C7.5942 10.8472 6.8608 11.7505 6.23053 12.6825C5.05024 14.4462 4.37413 16.2959 3.847 18.1742C3.67512 18.7979 3.54907 19.4289 3.41155 20.0598C3.29696 20.6047 2.62087 20.9488 1.77288 20.8842C1.01657 20.8269 0.500898 20.368 0.592573 19.8447C0.993651 17.7154 1.64683 15.6219 2.68962 13.5858C3.44593 12.0947 4.38559 10.6537 5.96697 9.42054C7.0556 8.58173 8.36197 7.92932 10.1153 7.73575C10.4705 7.69274 10.8257 7.6784 11.0091 7.66406Z" fill="url(#paint2_linear_752_1551)"/>
</g>
<defs>
<linearGradient id="paint0_linear_752_1551" x1="20.2873" y1="0.290239" x2="20.2873" y2="37.072" gradientUnits="userSpaceOnUse">
<stop offset="0.0874372" stop-color="#5570D3" stop-opacity="0"/>
<stop offset="0.536458" stop-color="#5570D3"/>
<stop offset="1" stop-color="#5570D3" stop-opacity="0"/>
</linearGradient>
<linearGradient id="paint1_linear_752_1551" x1="20.2873" y1="-8.29258" x2="20.2873" y2="45.366" gradientUnits="userSpaceOnUse">
<stop offset="0.0874372" stop-color="#5570D3" stop-opacity="0"/>
<stop offset="0.536458" stop-color="#5570D3"/>
<stop offset="1" stop-color="#5570D3" stop-opacity="0"/>
</linearGradient>
<linearGradient id="paint2_linear_752_1551" x1="20.2854" y1="7.66406" x2="20.2854" y2="32.3481" gradientUnits="userSpaceOnUse">
<stop stop-color="#5570D3"/>
<stop offset="0.479167" stop-color="#5570D3"/>
<stop offset="1" stop-color="#5570D3"/>
</linearGradient>
<clipPath id="clip0_752_1551">
<rect width="168" height="40" fill="white"/>
</clipPath>
</defs>
</svg>
